<svg id="Lag_1" data-name="Lag 1" xmlns="http://www.w3.org/2000/svg" width="45.37" height="34.43" viewBox="0 0 45.37 34.43"><defs><style>.cls-1{fill:#8c6437;}.cls-1,.cls-11,.cls-2,.cls-3,.cls-4,.cls-5,.cls-6,.cls-7,.cls-8,.cls-9{stroke:#1d1d1b;stroke-miterlimit:10;}.cls-2{fill:#d5bea2;}.cls-3{fill:#c59a66;}.cls-4{fill:#f6e2bd;}.cls-5{fill:#9aabbd;}.cls-6{fill:#d2b492;}.cls-7{fill:#99aab9;}.cls-8{fill:#2c3945;}.cls-13,.cls-9{fill:#fff;}.cls-10{fill:#ededed;}.cls-11{fill:none;}.cls-12{opacity:0.69;}.cls-14{fill:#1d1d1b;}</style></defs><rect class="cls-1" x="1.08" y="7.81" width="38.06" height="25.24" rx="2.52"/><rect class="cls-2" x="1.08" y="8.07" width="38.06" height="5.32" rx="1.64"/><rect class="cls-2" x="1.07" y="27.72" width="38.06" height="5.32" rx="1.64"/><rect class="cls-3" x="6.37" y="4.93" width="6.71" height="2.87" rx="0.73"/><path class="cls-4" d="M33.07,7.71c-4.09.15-8.5.21-12.56.09-.64,0-1-.32-.84-.78s.4-.88.58-1.32.41-.79,1-.8c3.52,0,7.2,0,10.72,0a1,1,0,0,1,1,.69c.2.47.5.86.76,1.34S33.72,7.69,33.07,7.71Z"/><ellipse class="cls-5" cx="6.88" cy="13.64" rx="2.33" ry="2.31"/><ellipse class="cls-6" cx="23.29" cy="20.42" rx="9.59" ry="9.69"/><ellipse class="cls-7" cx="23.29" cy="20.42" rx="7.8" ry="7.74"/><ellipse class="cls-8" cx="23.29" cy="20.42" rx="3.19" ry="3.16"/><rect class="cls-9" x="33.26" y="9.6" width="3.92" height="2.26" rx="0.7"/><ellipse class="cls-10" cx="18.4" cy="17.59" rx="1.03" ry="1.02"/><ellipse class="cls-10" cx="21.88" cy="20.01" rx="0.65" ry="0.65"/><line class="cls-11" x1="37.19" y1="15.31" x2="37.19" y2="19.84"/><line class="cls-11" x1="37.19" y1="20.66" x2="37.19" y2="22.61"/><line class="cls-11" x1="2.84" y1="31.11" x2="7.4" y2="31.11"/><line class="cls-11" x1="8.28" y1="31.11" x2="10.29" y2="31.11"/><g class="cls-12"><path class="cls-13" d="M27.08,17.65c1.7-1,2.11-3.35,1.44-5.22a12.33,12.33,0,0,0-3.65-4.65,7.66,7.66,0,0,0,6.32-1.42A7.47,7.47,0,0,0,34,.59,10.48,10.48,0,0,0,44.08,6.73a4.22,4.22,0,0,0-2.44,4.46,6.23,6.23,0,0,0,3.13,4.37,9,9,0,0,0-6.62,5.31A8,8,0,0,0,27.7,17.65"/><path class="cls-14" d="M27.27,18a4.56,4.56,0,0,0,1.85-4.73c-.4-2.38-2.27-4.18-4-5.73l-.37.63A7.94,7.94,0,0,0,34.37.59l-.7.19A10.87,10.87,0,0,0,44.08,7.1l-.19-.7a4.62,4.62,0,0,0-2.65,4.52,6.51,6.51,0,0,0,3.34,5l.09-.69a9.54,9.54,0,0,0-6.85,5.49h.65a8.35,8.35,0,0,0-11-3.35c-.43.23-.05.88.38.65a7.57,7.57,0,0,1,9.93,3.08.38.38,0,0,0,.65,0,8.8,8.8,0,0,1,6.4-5.14.38.38,0,0,0,.09-.69,5.75,5.75,0,0,1-3-4.31,3.88,3.88,0,0,1,2.28-3.87c.34-.15.16-.72-.19-.7A10.13,10.13,0,0,1,34.32.4c-.16-.36-.69-.15-.7.19A7.17,7.17,0,0,1,25,7.42c-.34-.06-.66.36-.36.63,1.43,1.3,3,2.73,3.59,4.61a4,4,0,0,1-1.31,4.67c-.4.26,0,.91.38.65Z"/></g></svg>