<?xml version="1.0" encoding="UTF-8"?>
<svg width="40" height="40" id="Lag_1" data-name="Lag 1" xmlns="http://www.w3.org/2000/svg" viewBox="0 0 30 20">
  <defs>
    <style>
      .cls-1 {
        fill: #ededed;
      }

      .cls-2 {
        fill: #99aab9;
      }

      .cls-2, .cls-3, .cls-4, .cls-5, .cls-6, .cls-7, .cls-8, .cls-9, .cls-10, .cls-11 {
        stroke: #1d1d1b;
        stroke-miterlimit: 10;
      }

      .cls-3 {
        fill: #fff;
      }

      .cls-4 {
        fill: #d5bea2;
      }

      .cls-5 {
        fill: #c59a66;
      }

      .cls-6 {
        fill: #d2b492;
      }

      .cls-7 {
        fill: #8c6437;
      }

      .cls-8 {
        fill: #2c3945;
      }

      .cls-9 {
        fill: #9aabbd;
      }

      .cls-10 {
        fill: #f6e2bd;
      }

      .cls-11 {
        fill: none;
      }
    </style>
  </defs>
  <rect class="cls-7" x="2.2" y="3.14" width="25.6" height="15.53" rx="2.52" ry="2.52"/>
  <rect class="cls-4" x="2.2" y="3.3" width="25.6" height="3.27" rx="1.64" ry="1.64"/>
  <rect class="cls-4" x="2.19" y="15.39" width="25.6" height="3.27" rx="1.64" ry="1.64"/>
  <rect class="cls-5" x="5.76" y="1.37" width="4.51" height="1.77" rx=".73" ry=".73"/>
  <path class="cls-10" d="M23.73,3.08c-2.75,.09-5.72,.13-8.45,.05-.43-.01-.68-.2-.57-.48s.27-.54,.39-.81c.12-.27,.27-.48,.65-.49,2.37-.03,4.84,0,7.21-.02,.38,0,.56,.13,.69,.42s.34,.53,.51,.83c.17,.3,0,.48-.44,.49Z"/>
  <ellipse class="cls-9" cx="6.1" cy="6.73" rx="1.57" ry="1.42"/>
  <ellipse class="cls-6" cx="17.15" cy="10.9" rx="6.45" ry="5.97"/>
  <ellipse class="cls-2" cx="17.15" cy="10.9" rx="5.25" ry="4.76"/>
  <ellipse class="cls-8" cx="17.15" cy="10.9" rx="2.14" ry="1.94"/>
  <rect class="cls-3" x="23.85" y="4.24" width="2.64" height="1.39" rx=".7" ry=".7"/>
  <ellipse class="cls-1" cx="13.85" cy="9.16" rx=".7" ry=".63"/>
  <ellipse class="cls-1" cx="16.2" cy="10.65" rx=".44" ry=".4"/>
  <line class="cls-11" x1="26.49" y1="7.75" x2="26.49" y2="10.54"/>
  <line class="cls-11" x1="26.49" y1="11.05" x2="26.49" y2="12.25"/>
  <line class="cls-11" x1="3.39" y1="17.48" x2="6.46" y2="17.48"/>
  <line class="cls-11" x1="7.05" y1="17.48" x2="8.4" y2="17.48"/>
</svg>